name Walk10.mot
datacolumns 19
datarows 10
range 1.56700000 1.57600000
endheader

                time	   L_ground_force_vx	   L_ground_force_vy	   L_ground_force_vz	   L_ground_force_px	   L_ground_force_py	   L_ground_force_pz	   R_ground_force_vx	   R_ground_force_vy	   R_ground_force_vz	   R_ground_force_px	   R_ground_force_py	   R_ground_force_pz	   L_ground_torque_x	   L_ground_torque_y	   L_ground_torque_z	   R_ground_torque_x	   R_ground_torque_y	   R_ground_torque_z	
          1.56700000	          0.01304654	          0.03584650	          0.00383475	         -0.00014702	          0.00000000	          0.00014782	        -30.42150152	        703.19034384	         19.05306865	          0.35561270	          0.00000000	          0.08006603	          0.00000000	          0.00010484	          0.00000000	          0.00000000	          2.18458851	          0.00000000	
          1.56800000	          0.01115121	          0.03082724	          0.00351722	         -0.00013919	          0.00000000	          0.00014030	        -30.05266510	        701.22576819	         18.90860625	          0.35604277	          0.00000000	          0.07999354	          0.00000000	          0.00009167	          0.00000000	          0.00000000	          2.11170151	          0.00000000	
          1.56900000	          0.00937489	          0.02611825	          0.00321339	         -0.00013150	          0.00000000	          0.00013290	        -29.68724029	        699.29816068	         18.76684303	          0.35647254	          0.00000000	          0.07992132	          0.00000000	          0.00007927	          0.00000000	          0.00000000	          2.03954761	          0.00000000	
          1.57000000	          0.00771418	          0.02171094	          0.00292326	         -0.00012397	          0.00000000	          0.00012562	        -29.32525010	        697.40756924	         18.62806635	          0.35690193	          0.00000000	          0.07984938	          0.00000000	          0.00006762	          0.00000000	          0.00000000	          1.96811813	          0.00000000	
          1.57100000	          0.00616552	          0.01759632	          0.00264674	         -0.00011662	          0.00000000	          0.00011849	        -28.96672007	        695.55401451	         18.49254699	          0.35733086	          0.00000000	          0.07977769	          0.00000000	          0.00005671	          0.00000000	          0.00000000	          1.89740480	          0.00000000	
          1.57200000	          0.00472523	          0.01376505	          0.00238373	         -0.00010944	          0.00000000	          0.00011151	        -28.61167774	        693.73748972	         18.36053840	          0.35775927	          0.00000000	          0.07970625	          0.00000000	          0.00004651	          0.00000000	          0.00000000	          1.82739962	          0.00000000	
          1.57300000	          0.00338955	          0.01020751	          0.00213408	         -0.00010247	          0.00000000	          0.00010471	        -28.26015218	        691.95796114	         18.23227567	          0.35818706	          0.00000000	          0.07963503	          0.00000000	          0.00003701	          0.00000000	          0.00000000	          1.75809480	          0.00000000	
          1.57400000	          0.00215462	          0.00691388	          0.00189759	         -0.00009570	          0.00000000	          0.00009809	        -27.91217344	        690.21536967	         18.10797442	          0.35861417	          0.00000000	          0.07956404	          0.00000000	          0.00002817	          0.00000000	          0.00000000	          1.68948259	          0.00000000	
          1.57500000	          0.00101655	          0.00387417	          0.00167404	         -0.00008914	          0.00000000	          0.00009166	        -27.56777188	        688.50963315	         17.98782961	          0.35904052	          0.00000000	          0.07949325	          0.00000000	          0.00001998	          0.00000000	          0.00000000	          1.62155519	          0.00000000	
          1.57600000	         -0.00002859	          0.00107826	          0.00146317	         -0.00008280	          0.00000000	          0.00008543	        -27.22697718	        686.84064929	         17.87201414	          0.35946603	          0.00000000	          0.07942266	          0.00000000	          0.00001240	          0.00000000	          0.00000000	          1.55430454	          0.00000000	
